<svg width="360" height="191" viewBox="0 0 360 191" fill="none" xmlns="http://www.w3.org/2000/svg">
<path fill-rule="evenodd" clip-rule="evenodd" d="M28.498 0H0V84.0193C0 91.4795 1.23491 98.206 3.70474 104.199C6.17456 110.191 9.59432 115.297 13.964 119.517C18.3337 123.736 23.59 126.977 29.7329 129.239C35.8758 131.502 42.6836 132.633 50.1564 132.633C57.5026 132.633 64.2787 131.441 70.485 129.056C76.6912 126.671 82.0425 123.369 86.5388 119.15C91.0352 114.93 94.5182 109.886 96.9881 104.015C99.4579 98.1448 100.693 91.7853 100.693 84.9366C100.693 76.4979 99.2679 69.2823 96.4181 63.2897C93.5683 57.297 89.9586 52.3745 85.5889 48.5221C81.2192 44.6697 76.3745 41.8262 71.0549 39.9917C65.7353 38.1572 60.6057 37.24 55.666 37.24C49.5865 37.24 44.2668 38.3101 39.7072 40.4503C35.1475 42.5906 31.5377 45.434 28.8779 48.9807H28.498V0ZM65.8303 100.897C61.8406 104.932 56.616 106.95 50.1564 106.95C43.6969 106.95 38.4723 104.932 34.4825 100.897C30.4928 96.8607 28.498 91.5407 28.498 84.9366C28.498 78.3324 30.4928 73.0124 34.4825 68.9766C38.4723 64.9407 43.6969 62.9228 50.1564 62.9228C56.616 62.9228 61.8406 64.9407 65.8303 68.9766C69.82 73.0124 71.8149 78.3324 71.8149 84.9366C71.8149 91.5407 69.82 96.8607 65.8303 100.897Z" fill="#191D31"/>
<path fill-rule="evenodd" clip-rule="evenodd" d="M117.969 28.0798C121.208 31.2078 125.243 32.7718 130.073 32.7718C134.903 32.7718 138.937 31.2078 142.177 28.0798C145.416 24.9518 147.036 21.056 147.036 16.3925C147.036 11.7289 145.416 7.83317 142.177 4.70517C138.937 1.57718 134.903 0.0131836 130.073 0.0131836C125.243 0.0131836 121.208 1.57718 117.969 4.70517C114.73 7.83317 113.11 11.7289 113.11 16.3925C113.11 21.056 114.73 24.9518 117.969 28.0798ZM115.837 45.0759V130.248H144.335V45.0759H115.837Z" fill="#191D31"/>
<path d="M166.32 130.248V0H194.818V130.248H166.32Z" fill="#191D31"/>
<path fill-rule="evenodd" clip-rule="evenodd" d="M260.872 132.923C232.344 132.923 209.664 113.241 209.664 84.6692C209.664 59.0688 230.511 36.7026 260.638 36.7026C269.689 36.7026 276.924 39.3864 276.924 39.3864L310.297 36.7026V57.8003L303.784 59.9567C303.784 59.9567 311.442 67.5328 311.442 84.6074C311.442 113.603 287.947 132.923 260.872 132.923ZM282.944 85.1854C282.944 73.3579 273.354 63.5647 260.324 63.5647C247.98 63.5647 238.162 73.075 238.162 85.2194C238.162 96.2988 246.858 106.874 260.676 106.874C272.37 106.874 282.944 97.7258 282.944 85.1854Z" fill="#191D31"/>
<path fill-rule="evenodd" clip-rule="evenodd" d="M330.55 28.0798C333.79 31.2078 337.824 32.7718 342.654 32.7718C347.484 32.7718 351.518 31.2078 354.758 28.0798C357.997 24.9518 359.617 21.056 359.617 16.3925C359.617 11.7289 357.997 7.83317 354.758 4.70517C351.518 1.57718 347.484 0.0131836 342.654 0.0131836C337.824 0.0131836 333.79 1.57718 330.55 4.70517C327.311 7.83317 325.691 11.7289 325.691 16.3925C325.691 21.056 327.311 24.9518 330.55 28.0798ZM328.419 45.0759V130.248H356.917V45.0759H328.419Z" fill="#191D31"/>
<path d="M309.4 137.599L261.9 163.806L214.413 137.599V163.806L261.907 190.013L309.407 163.806V137.599H309.4Z" fill="#7065F0"/>
</svg>
