<svg width="18" height="18" viewBox="0 0 18 18" fill="none" xmlns="http://www.w3.org/2000/svg">
  <path fill-rule="evenodd" clip-rule="evenodd"
    d="M13.7273 0H4.63636C3.18034 0 2 1.18034 2 2.63636V15.3636C2 16.8197 3.18034 18 4.63636 18H13.7273C15.1833 18 16.3636 16.8197 16.3636 15.3636V2.63636C16.3636 1.18034 15.1833 0 13.7273 0ZM4.63635 1.63635H13.7273C14.2795 1.63635 14.7273 2.08407 14.7273 2.63635V15.3636C14.7273 15.9159 14.2795 16.3636 13.7273 16.3636H4.63635C4.08407 16.3636 3.63635 15.9159 3.63635 15.3636V2.63635C3.63635 2.08407 4.08407 1.63635 4.63635 1.63635ZM12.7273 4.45453C12.7273 4.00267 12.3609 3.63635 11.9091 3.63635H6.45453L6.3519 3.64273C5.94848 3.69321 5.63635 4.03742 5.63635 4.45453C5.63635 4.9064 6.00267 5.27272 6.45453 5.27272H11.9091L12.0117 5.26634C12.4151 5.21585 12.7273 4.87164 12.7273 4.45453ZM11.9091 7.27271C12.3609 7.27271 12.7273 7.63902 12.7273 8.09089C12.7273 8.508 12.4151 8.85221 12.0117 8.90269L11.9091 8.90907H6.45453C6.00267 8.90907 5.63635 8.54276 5.63635 8.09089C5.63635 7.67378 5.94848 7.32957 6.3519 7.27908L6.45453 7.27271H11.9091ZM10.9091 11.7272C10.9091 11.2754 10.5428 10.9091 10.0909 10.9091H6.45453L6.3519 10.9154C5.94848 10.9659 5.63635 11.3101 5.63635 11.7272C5.63635 12.1791 6.00267 12.5454 6.45453 12.5454H10.0909L10.1935 12.539C10.597 12.4886 10.9091 12.1444 10.9091 11.7272Z"
    fill="#7065F0" />
</svg>