<svg width="66" height="66" viewBox="0 0 66 66" fill="none" xmlns="http://www.w3.org/2000/svg">
  <g clip-path="url(#clip0_14_3879)">
    <path d="M66 0H0V66H66V0Z" fill="white" />
    <path
      d="M56.6257 0.787598H9.27991C7.79986 0.787598 6.59998 1.98745 6.59998 3.46754V63.3197C6.59998 64.7998 7.79986 65.9996 9.27991 65.9996H56.6257C58.1058 65.9996 59.3057 64.7998 59.3057 63.3197V3.46754C59.3057 1.98745 58.1058 0.787598 56.6257 0.787598Z"
      fill="#D4DCE7" />
    <path
      d="M8.3866 5.25416C8.3866 3.77407 9.58648 2.57422 11.0666 2.57422H54.8391C56.3192 2.57422 57.519 3.77408 57.519 5.25418V32.0537C57.519 32.547 57.1191 32.947 56.6257 32.947H9.27991C8.78656 32.947 8.3866 32.547 8.3866 32.0537V5.25416Z"
      fill="#F0F4F9" />
    <path
      d="M8.58002 31.9906C8.58002 31.4546 8.9776 31.02 9.46805 31.02H56.532C57.0224 31.02 57.42 31.4546 57.42 31.9906V61.1083C57.42 62.7165 56.2273 64.02 54.7561 64.02H11.244C9.7727 64.02 8.58002 62.7165 8.58002 61.1083V31.9906Z"
      fill="#F0F4F9" />
    <path d="M11.88 7.26001V7.92001H54.78V7.26001H11.88Z" fill="#7A8A9E" fill-opacity="0.19" />
    <path d="M11.88 22.4399V23.0999H54.78V22.4399H11.88Z" fill="#7A8A9E" fill-opacity="0.19" />
    <path d="M11.88 15.1799V15.8399H54.78V15.1799H11.88Z" fill="#7A8A9E" fill-opacity="0.19" />
    <path d="M11.88 30.3601V31.0201H54.78V30.3601H11.88Z" fill="#7A8A9E" fill-opacity="0.19" />
    <path d="M11.88 9.8999V10.5599H54.78V9.8999H11.88Z" fill="#7A8A9E" fill-opacity="0.19" />
    <path d="M11.88 25.0801V25.7401H54.78V25.0801H11.88Z" fill="#7A8A9E" fill-opacity="0.19" />
    <path d="M11.88 17.8201V18.4801H54.78V17.8201H11.88Z" fill="#7A8A9E" fill-opacity="0.19" />
    <path d="M11.88 33V33.66H54.78V33H11.88Z" fill="#7A8A9E" fill-opacity="0.19" />
    <path d="M11.88 12.54V13.2H54.78V12.54H11.88Z" fill="#7A8A9E" fill-opacity="0.19" />
    <path d="M11.88 27.72V28.38H54.78V27.72H11.88Z" fill="#7A8A9E" fill-opacity="0.19" />
    <path d="M11.88 20.46V21.12H54.78V20.46H11.88Z" fill="#7A8A9E" fill-opacity="0.19" />
    <path d="M11.88 35.6399V36.2999H54.78V35.6399H11.88Z" fill="#7A8A9E" fill-opacity="0.19" />
    <path
      d="M54.5178 51.4349L54.0379 41.5893C54.0199 41.2197 53.7057 40.9347 53.3361 40.9527L31.0297 42.0401C30.6601 42.0581 30.3751 42.3722 30.3931 42.7418L30.873 52.5875C30.8911 52.9571 31.2053 53.242 31.5748 53.224L53.8812 52.1367C54.2508 52.1187 54.5358 51.8045 54.5178 51.4349Z"
      stroke="#DAE0E8" stroke-width="0.439891" />
    <path d="M52.718 44.0903L52.6776 43.2595L32.7402 44.2314L32.7807 45.0621L52.718 44.0903Z" fill="#7A8A9E" />
    <path d="M44.6756 46.1476L44.6351 45.3169L32.8204 45.8928L32.8609 46.7236L44.6756 46.1476Z" fill="#7A8A9E" />
    <path d="M48.4499 47.6288L48.4095 46.7981L32.9026 47.554L32.9431 48.3847L48.4499 47.6288Z" fill="#DAE0E8" />
    <path d="M48.5298 49.2905L48.4894 48.4597L32.9825 49.2156L33.023 50.0464L48.5298 49.2905Z" fill="#DAE0E8" />
    <path
      d="M33.3071 55.8622C33.4413 58.615 35.7816 60.7377 38.5344 60.6036C41.2872 60.4694 43.4099 58.129 43.2758 55.3763C43.1416 52.6235 40.8012 50.5008 38.0485 50.6349C35.2957 50.7691 33.1729 53.1095 33.3071 55.8622Z"
      fill="#7A8A9E" />
  </g>
  <defs>
    <clipPath id="clip0_14_3879">
      <rect width="66" height="66" fill="white" />
    </clipPath>
  </defs>
</svg>