<svg width="20" height="18" viewBox="0 0 20 18" fill="none" xmlns="http://www.w3.org/2000/svg">
  <path fill-rule="evenodd" clip-rule="evenodd"
    d="M4.50673 0C3.65396 0 2.86304 0.342024 2.17893 0.98968C1.65939 1.46083 1.26541 2.0131 1.01464 2.62609C0.77381 3.2051 0.651917 3.83521 0.651917 4.49174C0.651917 5.45427 0.880163 6.45123 1.33061 7.48012C1.7628 8.45865 2.35448 9.44687 3.0982 10.4413C3.83655 11.4166 4.66031 12.3452 5.57177 13.2303C6.49604 14.1107 7.46109 14.9029 8.481 15.6194C9.50271 16.3348 10.5406 16.9089 11.5872 17.3378C12.6599 17.7773 13.6981 18 14.6889 18C15.3855 18 16.0452 17.8755 16.6603 17.6291C17.288 17.3817 17.8462 16.9951 18.3433 16.4682C18.6365 16.157 18.8702 15.8174 19.0536 15.4439C19.2451 15.0539 19.3422 14.6406 19.3422 14.2266C19.3422 13.9081 19.2763 13.6112 19.1496 13.3066C18.985 12.9459 18.736 12.667 18.3998 12.4431L15.5655 10.5078C15.2915 10.3285 15.0492 10.1981 14.8098 10.104C14.5352 9.99591 14.2646 9.94128 13.9935 9.94128C13.686 9.94128 13.3956 10.0119 13.1193 10.149L12.8658 10.2862C12.6669 10.4031 12.4452 10.5776 12.2195 10.7947L11.6909 11.2954L11.6791 11.2908L11.541 11.2094L11.363 11.0916L11.1512 10.9398L10.9119 10.7565C10.87 10.7235 10.8273 10.6892 10.7838 10.6538C10.6122 10.5137 10.438 10.3656 10.255 10.2044L9.87535 9.86293L9.46083 9.47699C9.06707 9.09082 8.6714 8.6748 8.25899 8.21647L8.02524 7.94236L7.82882 7.69463C7.76975 7.61678 7.71719 7.54381 7.67139 7.47621L7.59487 7.35606L8.12853 6.82345C8.37175 6.58974 8.57708 6.3396 8.72514 6.08768C8.90401 5.8058 9.00544 5.47482 9.00544 5.13578C9.00544 4.87357 8.94027 4.60305 8.82277 4.33938C8.725 4.10925 8.58246 3.86869 8.39621 3.61992L6.40754 0.92413C6.18413 0.613685 5.88287 0.375455 5.52594 0.217021C5.21853 0.0750137 4.86429 0 4.50673 0ZM4.50672 1.48621C4.63639 1.48621 4.76194 1.51279 4.86777 1.56165C4.98953 1.61579 5.07408 1.68265 5.14206 1.77709L7.13897 4.48409C7.2605 4.64646 7.34325 4.78611 7.39741 4.91345C7.44191 5.01356 7.46008 5.08898 7.46008 5.13575C7.46008 5.1951 7.44009 5.26032 7.39244 5.3356C7.32745 5.44561 7.24375 5.55528 7.13823 5.66838L6.36236 6.44532C6.13142 6.66723 6.00916 6.96399 6.00916 7.29079C6.00916 7.41824 6.02545 7.53579 6.05798 7.66093L6.08411 7.74163L6.14325 7.88083L6.19794 8.00168C6.38387 8.32951 6.68164 8.72443 7.08486 9.18273C7.52283 9.66954 7.93992 10.1081 8.36804 10.5277L8.81044 10.9398C8.88072 11.0042 8.94946 11.0666 9.01694 11.1273L9.40903 11.4726C9.53621 11.582 9.66063 11.6863 9.78455 11.7875C10.2554 12.1707 10.6717 12.4547 11.0306 12.6375L11.2423 12.7298C11.4348 12.8001 11.5915 12.8229 11.7613 12.8229C12.1104 12.8229 12.4188 12.6966 12.6597 12.4649L13.3085 11.8491C13.446 11.7169 13.5666 11.6205 13.6685 11.5576L13.7414 11.5166C13.8676 11.4446 13.9273 11.4275 13.9935 11.4275C14.0568 11.4275 14.13 11.4423 14.2247 11.4795C14.355 11.5308 14.5057 11.6118 14.6837 11.7282L17.5126 13.66C17.6296 13.738 17.69 13.8057 17.7249 13.8818C17.7719 13.996 17.7968 14.1083 17.7968 14.2266C17.7968 14.4203 17.7506 14.6169 17.6562 14.8093C17.5369 15.0521 17.3877 15.269 17.1985 15.4698C16.8521 15.8369 16.4825 16.0929 16.07 16.2555C15.641 16.4274 15.1834 16.5137 14.6889 16.5137C13.9165 16.5137 13.082 16.3348 12.193 15.9704C11.2567 15.5868 10.3202 15.0687 9.39155 14.4185C8.43525 13.7467 7.52896 13.0027 6.66449 12.1793C5.81265 11.3521 5.03954 10.4806 4.35012 9.56991C3.67312 8.66471 3.13827 7.7714 2.75391 6.90118C2.38112 6.04965 2.19727 5.24662 2.19727 4.49171C2.19727 4.02118 2.28292 3.57844 2.45108 3.17412C2.61888 2.76397 2.88278 2.39405 3.2512 2.05977C3.67021 1.66333 4.0798 1.48621 4.50672 1.48621Z"
    fill="#191D31" />
</svg>