<svg width="22" height="17" viewBox="0 0 22 17" fill="none" xmlns="http://www.w3.org/2000/svg">
  <circle cx="3.40426" cy="3.40426" r="3.40426" transform="matrix(-1 0 0 1 14.6162 1)" stroke="white"
    stroke-width="1.5" />
  <path
    d="M5.25488 12.8594C5.25488 12.1272 5.71518 11.474 6.40475 11.2277V11.2277C9.51364 10.1174 12.911 10.1174 16.0199 11.2277V11.2277C16.7095 11.474 17.1698 12.1272 17.1698 12.8594V13.979C17.1698 14.9896 16.2747 15.7659 15.2743 15.6229L14.9407 15.5753C12.4677 15.222 9.95698 15.222 7.48393 15.5753L7.15038 15.6229C6.14995 15.7659 5.25488 14.9896 5.25488 13.979V12.8594Z"
    stroke="white" stroke-width="1.5" />
  <path
    d="M16.3194 7.90264C17.7966 7.90264 18.9941 6.70511 18.9941 5.22787C18.9941 3.75064 17.7966 2.5531 16.3194 2.5531"
    stroke="white" stroke-width="1.5" stroke-linecap="round" />
  <path
    d="M19.2491 14.0051L19.5111 14.0425C20.2972 14.1548 21.0005 13.5448 21.0005 12.7508V11.8711C21.0005 11.2958 20.6388 10.7826 20.097 10.5891C19.5565 10.3961 19.005 10.2458 18.4473 10.1382"
    stroke="white" stroke-width="1.5" stroke-linecap="round" />
  <path d="M5.68063 7.90264C4.2034 7.90264 3.00586 6.70511 3.00586 5.22787C3.00586 3.75064 4.2034 2.5531 5.68063 2.5531"
    stroke="white" stroke-width="1.5" stroke-linecap="round" />
  <path
    d="M2.75094 14.0051L2.48886 14.0425C1.70281 14.1548 0.999543 13.5448 0.999543 12.7508V11.8711C0.999543 11.2958 1.36121 10.7826 1.90301 10.5891C2.44346 10.3961 2.995 10.2458 3.55273 10.1382"
    stroke="white" stroke-width="1.5" stroke-linecap="round" />
</svg>