<svg width="17" height="17" viewBox="0 0 17 17" fill="none" xmlns="http://www.w3.org/2000/svg">
<path d="M8.5 7.43758C7.79952 7.43758 7.11478 7.22987 6.53235 6.8407C5.94993 6.45154 5.49598 5.89841 5.22792 5.25125C4.95986 4.6041 4.88973 3.89199 5.02638 3.20497C5.16304 2.51796 5.50035 1.88689 5.99566 1.39158C6.49097 0.896269 7.12204 0.558958 7.80905 0.422302C8.49607 0.285646 9.20818 0.355783 9.85533 0.623843C10.5025 0.891903 11.0556 1.34585 11.4448 1.92827C11.8339 2.5107 12.0417 3.19544 12.0417 3.89592C12.0417 4.83522 11.6685 5.73606 11.0043 6.40025C10.3401 7.06444 9.43931 7.43758 8.5 7.43758ZM8.5 1.77092C8.07971 1.77092 7.66886 1.89555 7.31941 2.12904C6.96996 2.36254 6.69759 2.69442 6.53675 3.08271C6.37592 3.47101 6.33383 3.89827 6.41583 4.31048C6.49782 4.72269 6.70021 5.10133 6.99739 5.39852C7.29458 5.6957 7.67322 5.89809 8.08543 5.98009C8.49764 6.06208 8.92491 6.02 9.3132 5.85916C9.70149 5.69832 10.0334 5.42596 10.2669 5.0765C10.5004 4.72705 10.625 4.3162 10.625 3.89592C10.625 3.33233 10.4011 2.79183 10.0026 2.39331C9.60408 1.9948 9.06358 1.77092 8.5 1.77092Z" fill="black"/>
<path d="M14.875 16.6458H2.12501C1.93714 16.6458 1.75698 16.5711 1.62414 16.4383C1.4913 16.3054 1.41667 16.1253 1.41667 15.9374V13.8124C1.41667 12.3095 2.01369 10.8682 3.0764 9.80548C4.13911 8.74277 5.58045 8.14575 7.08334 8.14575H9.91667C11.4196 8.14575 12.8609 8.74277 13.9236 9.80548C14.9863 10.8682 15.5833 12.3095 15.5833 13.8124V15.9374C15.5833 16.1253 15.5087 16.3054 15.3759 16.4383C15.243 16.5711 15.0629 16.6458 14.875 16.6458ZM2.83334 15.2291H14.1667V13.8124C14.1667 12.6852 13.7189 11.6042 12.9219 10.8072C12.1248 10.0102 11.0438 9.56242 9.91667 9.56242H7.08334C5.95617 9.56242 4.87516 10.0102 4.07813 10.8072C3.28111 11.6042 2.83334 12.6852 2.83334 13.8124V15.2291Z" fill="black"/>
</svg>
